<svg width="22" height="22" viewBox="0 0 22 22" fill="none" xmlns="http://www.w3.org/2000/svg">
<rect width="22" height="22" rx="11" fill="#FFEEFF"/>
<path d="M11.7692 6.76923C11.7692 6.34375 11.4255 6 11 6C10.5745 6 10.2308 6.34375 10.2308 6.76923V10.2308H6.76923C6.34375 10.2308 6 10.5745 6 11C6 11.4255 6.34375 11.7692 6.76923 11.7692H10.2308V15.2308C10.2308 15.6562 10.5745 16 11 16C11.4255 16 11.7692 15.6562 11.7692 15.2308V11.7692H15.2308C15.6562 11.7692 16 11.4255 16 11C16 10.5745 15.6562 10.2308 15.2308 10.2308H11.7692V6.76923Z" fill="#FF7A00"/>
</svg>
